<svg xmlns="http://www.w3.org/2000/svg" viewBox="0 0 512.57 105.84"><defs><style>.cls-1{fill:#25b0a9;}</style></defs><g id="Layer_2" data-name="Layer 2"><g id="Layer_1-2" data-name="Layer 1"><path d="M170.25,92H142.74L136,105h-18.8l39.7-73.72h20.79L191.36,105h-19Zm-2.1-13.66L163.85,51l-14.08,27.3Z"/><path d="M231.16,27.29,217.4,105h-18L213.2,27.29Z"/><path d="M262.13,27.29,248.38,105h-18l13.76-77.71Z"/><path d="M322.41,31.28l-2.52,14.18h-30l-2.73,15.85H309.6L307.08,75H284.6l-5.25,30h-18l13-73.72Z"/><path d="M347.08,46.4,336.79,105h-18l10.29-58.6Zm-14.43-8.35a7.39,7.39,0,0,1-2.47-5.72,10.56,10.56,0,0,1,3.67-8.08,12.76,12.76,0,0,1,8.93-3.36,9.31,9.31,0,0,1,6.61,2.25A7.63,7.63,0,0,1,351.81,29a10.47,10.47,0,0,1-3.68,8,12.62,12.62,0,0,1-8.82,3.36A9.45,9.45,0,0,1,332.65,38.05Z"/><path d="M409.77,50.71q5,4.93,5,13.75a35.12,35.12,0,0,1-.62,6.3L408.09,105H390.24l5.67-31.82a18.44,18.44,0,0,0,.32-3.15,9.15,9.15,0,0,0-2.47-6.83,9.43,9.43,0,0,0-6.88-2.41A12.6,12.6,0,0,0,378.06,64a15.65,15.65,0,0,0-4.62,9.14v-.53L367.77,105h-18l10.3-58.6h17.95l-1.36,7.88a25.68,25.68,0,0,1,19.21-8.51Q404.73,45.77,409.77,50.71Z"/><path d="M428.46,59.74a33,33,0,0,1,11.14-10.5,27.55,27.55,0,0,1,13.75-3.68A20.54,20.54,0,0,1,463.48,48a14.78,14.78,0,0,1,6.36,6.51l4.83-27.2h17.95L478.87,105h-18l1.47-8.4a24.74,24.74,0,0,1-19.63,9.24,21.11,21.11,0,0,1-11-2.84,19.38,19.38,0,0,1-7.45-8.08,26.66,26.66,0,0,1-2.68-12.29,43,43,0,0,1,.63-7A40.21,40.21,0,0,1,428.46,59.74Zm38,12.49a10.8,10.8,0,0,0-3-8.08,10.4,10.4,0,0,0-7.61-2.94A14.55,14.55,0,0,0,446.11,65a17.38,17.38,0,0,0-5.57,10.55,21.22,21.22,0,0,0-.31,3.47,11,11,0,0,0,3,8.14,10.2,10.2,0,0,0,7.51,3,14.42,14.42,0,0,0,9.76-3.88,18.07,18.07,0,0,0,5.67-10.61A21.31,21.31,0,0,0,466.48,72.23Z"/><path d="M493.52,103.58a7.41,7.41,0,0,1-2.47-5.72,10.76,10.76,0,0,1,3.62-8.19,12.72,12.72,0,0,1,9-3.36,9.17,9.17,0,0,1,6.51,2.25,7.63,7.63,0,0,1,2.41,5.83,10.63,10.63,0,0,1-3.62,8.09,12.43,12.43,0,0,1-8.77,3.36A9.49,9.49,0,0,1,493.52,103.58Z"/><path class="cls-1" d="M58.61,94.08a57.51,57.51,0,0,1-14.2,8.37,39.21,39.21,0,0,1-14.2,2.63q-13.56,0-21.89-7.57T0,77.59Q0,66.67,8.7,58.27T34.27,44.44q-2.18-7.68-2.86-11.33a36.13,36.13,0,0,1-.68-6.44A23.38,23.38,0,0,1,40.11,7.34Q49.49,0,64.93,0q10.62,0,17,4.22t6.37,11.22Q88.29,23,81,28.78T57.1,40.3q3.09,7.91,6.33,15.59t6.78,15.22q2.4-4.06,6.25-11.37Q87,39.63,97.32,39.62a13,13,0,0,1,9.08,3.09,10.33,10.33,0,0,1,3.43,8.06,9.56,9.56,0,0,1-2.6,6.82,8.61,8.61,0,0,1-6.52,2.75,10,10,0,0,1-7-2.45A8.23,8.23,0,0,1,91,51.52a7.34,7.34,0,0,1,.26-1.8,7.79,7.79,0,0,0,.26-1.28,1.49,1.49,0,0,0-.3-.79.82.82,0,0,0-.67-.27q-3.1,0-8.74,11.53-5.13,10.4-9.12,16.87,4.22,9.94,8.93,14.76t10.2,4.83a14.29,14.29,0,0,0,7.69-2.49,38.07,38.07,0,0,0,8.21-7.53l2.71,3.09q-5.58,8.66-12.5,12.65a32.21,32.21,0,0,1-16.35,4,31.37,31.37,0,0,1-13.67-2.75A22.28,22.28,0,0,1,58.61,94.08ZM35.48,48.13a17.19,17.19,0,0,0-9,6.41q-2.91,4.29-2.9,11.37,0,13.19,5.27,22T42,96.72a17.53,17.53,0,0,0,6.93-1.51,25.46,25.46,0,0,0,6.93-4.52,138.61,138.61,0,0,1-11.3-19.62A181.64,181.64,0,0,1,35.48,48.13ZM55.82,37.06q8.51-4,12.47-9.79T72.24,13A8.37,8.37,0,0,0,69.6,6.33Q67,4,62.15,4a12.15,12.15,0,0,0-8.7,3.09,10.74,10.74,0,0,0-3.28,8.21,35.16,35.16,0,0,0,1.39,8.4Q53,29,55.82,37.06Z"/></g></g></svg>