<svg xmlns="http://www.w3.org/2000/svg" viewBox="0 0 721.42 180.42"><defs><style>.cls-1{fill:#e26f25;}.cls-2{fill:#14477d;}</style></defs><g id="Layer_2" data-name="Layer 2"><g id="Layer_1-2" data-name="Layer 1"><path class="cls-1" d="M145.22,110.62c-.11,8.12-.87,8.47-8.82,10.22-13.56,3-26.28,8.55-38.71,14.56C87.85,140.16,78.4,145.76,69,151.35a82,82,0,0,0-27.36,25.87c-2.3,3.55-5.08,4.21-8.85,1.66a138.73,138.73,0,0,0-12.05-7.44c-5.66-3.05-5.86-6.34-1.54-11.35,11.57-13.41,23.79-25.94,37.9-37,20.08-15.7,42.8-24.43,66.94-30.52a32.65,32.65,0,0,1,13.3-.64c1.66.28,3.27.79,3.75,2.49C142.57,99.8,145.62,104.77,145.22,110.62Z"/><path class="cls-1" d="M121.12,58.23c5.54-.44,10.48,1.85,15.54,3.44,2.85.89,3.5,2.91,2.8,5.81-1,4-3.81,7.51-3.65,11.89,0,1-.14,2,0,3,.62,5.37.24,5.83-5,4.92-12.79-2.2-24.67,1.24-36,6.42s-22,11.94-32.83,18.26c-14.85,8.67-25.69,21.64-38.53,32.42-3.34,2.81-5.91,3.56-9.5,1.21s-7.3-4-9.81-7.63c-1.78-2.56-2.24-5-.36-7.55,4.61-6.31,7.55-14.14,15.7-17.27a3.65,3.65,0,0,0,1.65-1.36c4.57-7,12.41-10.6,17.64-16.93a14.43,14.43,0,0,1,8-4.86c4.41-1.07,7-4.7,10.29-7.54,7.69-6.71,16.09-12.41,26.59-13.77a14.52,14.52,0,0,0,7.94-3c5.32-4.55,11.65-6.06,18.42-6.47C113.66,59,117.39,58.55,121.12,58.23Z"/><path class="cls-2" d="M24.15,54.17c.32,1.67.88,4.33,1.36,7,.56,3-.1,5.57-3.57,6.21-1.92.35-2.79,1.93-4.21,2.85C14,72.64,12.2,72.4,10,68.72c-1.34-2.21-2.8-3.94-5.6-4.15A4.61,4.61,0,0,1,.12,60.83c-.52-1.94.76-3.32,2.05-4.46,1.89-1.66,4.54-2.65,4.49-5.84,0-.35.84-1.07,1.17-1,4.16.79,7.9-1.68,11.91-1.49C22.68,48.18,25.19,49.26,24.15,54.17Z"/><path class="cls-2" d="M63.61,62.61c.06,4.51-5.61,9.93-10.54,10.07C48,72.83,39.91,66,39.86,61.44c0-4.33,8.8-11.62,14.09-11.62S63.53,55.4,63.61,62.61Z"/><path class="cls-2" d="M62.33,43.86c-5.15.08-9.93-3.22-10-6.94C52.14,32.59,58.94,26.6,64,26.59c3.88,0,8.21,4.21,8.22,8C72.24,38.65,66.74,43.79,62.33,43.86Z"/><path class="cls-2" d="M81.87,23.94c-3.46-.09-5.94-1.22-7.06-4.37s.7-5.26,3.17-6.75c2.93-1.77,5.73-5,9.62-2.06,2.67,2,3.85,4.75,2.64,8C88.77,22.67,85.3,23.6,81.87,23.94Z"/><path class="cls-2" d="M25.6,34.92c0-3.56,2.81-6.58,5.83-6.65,4.21-.1,7.16,2.25,7.12,5.66,0,2.33-4.62,6.25-7.38,6C27.94,39.69,26,37.89,25.6,34.92Z"/><path class="cls-2" d="M112.07,5.15C112,2.73,115.4-.28,118.43,0c2.28.23,4.6,1.18,4.94,4,.27,2.18-3.92,6.07-6.4,6.18S112.18,8,112.07,5.15Z"/><path class="cls-2" d="M102.68,7.29c0,2.52-3.38,6-5.68,5.83-2.87-.18-4.8-2-4.59-4.69C92.7,4.71,96.23,4.62,99,4.21,101.18,3.88,102.33,5.41,102.68,7.29Z"/><path d="M184.73,165.79l11.61-69.5h28.72a48.85,48.85,0,0,1,12.83,1.4,16.37,16.37,0,0,1,11.76,15.86,15.56,15.56,0,0,1-4,10.82,20,20,0,0,1-10.8,6q11.46,4,11.46,15.13a20.63,20.63,0,0,1-5.48,14.2q-5.46,6.1-18.2,6.11Zm22.7-15.38h10.39c3.23,0,5.45-.67,6.68-2a6.52,6.52,0,0,0,1.83-4.43,6.09,6.09,0,0,0-2-4.76c-1.35-1.21-3.34-1.81-6-1.81h-8.72ZM212,122.82h8q9.54,0,9.54-6.31,0-5.55-7.56-5.55h-8Z"/><path d="M304.13,165.79H284c-.1-1-.16-1.78-.16-2.39a59.4,59.4,0,0,1,.38-6.14q-6.06,9.7-16.91,9.7-7.32,0-11.86-4.22a13.89,13.89,0,0,1-4.53-10.6,16.19,16.19,0,0,1,2.44-8.68,17.44,17.44,0,0,1,6.92-6.28,29.68,29.68,0,0,1,9.16-3.08q4.68-.75,18.32-2a10.13,10.13,0,0,0,.64-3c0-2.82-2-4.22-5.91-4.22s-6.72,1.91-8.56,5.75l-16.75-3.41q6.38-14.31,28-14.31,10.94,0,17.21,3.79a12.29,12.29,0,0,1,6.26,11.18q0,3.32-3.67,23.42a70.78,70.78,0,0,0-1.37,9.93A23.4,23.4,0,0,0,304.13,165.79ZM286,141.35q-14,1.07-14,9,0,4.33,4.53,4.33a8.79,8.79,0,0,0,5.8-2.6Q285.23,149.45,286,141.35Z"/><path d="M376.27,114.38l-9,8q-7.44,6.66-10.44,9.71l12.38,33.66H349.72l-7.11-22-8.85,8-2.35,14H313.29l11.61-69.5h18.17l-6.45,38.47,3.71-3.72c1.12-1.19,2.08-2.14,2.86-2.85l15.12-13.81Z"/><path d="M382.38,114.37h17.14l-2,12.4q5.36-13.93,16.37-13.93a15.42,15.42,0,0,1,2.4.25L414,131.42q-2.65-.15-3.51-.15-6.37,0-9.35,3t-4.25,10.54l-3.5,21H373.78Z"/><path d="M443.15,114.37l-8.61,51.42h-20l8.62-51.42Zm3.3-19.71-2.53,15.12h-20l2.53-15.12Z"/><path d="M501.83,143.85H466.39a28.12,28.12,0,0,0-.25,3.12,6.64,6.64,0,0,0,2.16,5.27,8,8,0,0,0,5.47,1.89q6.27,0,8.86-6.52l17.31,2.8a27.31,27.31,0,0,1-10.87,12.24,30.94,30.94,0,0,1-16.67,4.67q-11.5,0-18.66-6.54t-7.15-17.85A29.25,29.25,0,0,1,455,121.88q8.44-8.79,22.09-8.79,11.56,0,18.41,6.82T502.39,138A36,36,0,0,1,501.83,143.85ZM483.3,134a17.77,17.77,0,0,0,.25-2.45,7.21,7.21,0,0,0-1.71-4.78,5.85,5.85,0,0,0-4.76-2,8.47,8.47,0,0,0-5.9,2.47,11.06,11.06,0,0,0-3.26,6.8Z"/><path d="M537.28,96.29l-11.61,69.5H506.1l11.61-69.5Z"/><path d="M589.09,165.79H569a22.35,22.35,0,0,1-.16-2.39,59.4,59.4,0,0,1,.38-6.14q-6.06,9.7-16.91,9.7-7.32,0-11.86-4.22a13.89,13.89,0,0,1-4.53-10.6,16.19,16.19,0,0,1,2.44-8.68,17.44,17.44,0,0,1,6.92-6.28,29.68,29.68,0,0,1,9.16-3.08q4.68-.75,18.32-2a10.13,10.13,0,0,0,.64-3c0-2.82-2-4.22-5.91-4.22s-6.72,1.91-8.56,5.75l-16.75-3.41q6.36-14.31,28-14.31,11,0,17.21,3.79a12.28,12.28,0,0,1,6.27,11.18q0,3.32-3.67,23.42a69.23,69.23,0,0,0-1.37,9.93A24.12,24.12,0,0,0,589.09,165.79ZM571,141.35q-14,1.07-14,9,0,4.33,4.53,4.33a8.75,8.75,0,0,0,5.79-2.6Q570.2,149.45,571,141.35Z"/><path d="M606.86,114.37h17.92l-1.36,8.35a13.91,13.91,0,0,1,6.82-7.51,21.94,21.94,0,0,1,10-2.37q6.56,0,10.63,3.46a11.4,11.4,0,0,1,4.07,9.11,32.66,32.66,0,0,1-.51,5.25l-5.87,35.13H629l5.19-30.9a29.39,29.39,0,0,0,.51-3.92q0-4.33-4.57-4.33c-4.1,0-6.62,2.75-7.53,8.25l-5.2,30.9h-19.1Z"/><path d="M721.42,96.29l-11.61,69.5H691.54L692.8,158q-6.31,9.31-15.27,9.31a15.77,15.77,0,0,1-12-5.5q-5-5.5-5-15.73a39.66,39.66,0,0,1,7-22.91q7-10.25,17.88-10.24,9.31,0,12.58,7.34l4-24Zm-25.63,36.35a9.52,9.52,0,0,0,.15-1.73,5,5,0,0,0-1.55-3.71,5.14,5.14,0,0,0-3.74-1.53q-5.24,0-7.54,8.07a50.31,50.31,0,0,0-2.32,13.42q0,7,5.46,7c3.61,0,6-2.34,7.2-7Z"/></g></g></svg>