<svg xmlns="http://www.w3.org/2000/svg" viewBox="0 0 1045.34 146.43"><defs><style>.cls-1{fill:#358e9d;}.cls-2{fill:#202d5c;}</style></defs><g id="Layer_2" data-name="Layer 2"><g id="Layer_1-2" data-name="Layer 1"><path class="cls-1" d="M116.08,81.44c-21.35-11.12-39-12-47.3-12H40l-1.53-2.72H72.32c2.34,0,30.42-.39,47,4.05C140,76.33,154.22,87.15,157,89s40.48,28.81,40.48,28.81-6.35,6.48-12.53,6.48c-5.88,0-12.19-4.52-12.19-4.52s-20.2-14.53-23.26-16.7S130.44,89,116.08,81.44Z"/><path class="cls-1" d="M114.55,102.75c14.28,9.46,22.63,16.36,25.4,18.36l15.38,11s5.84,4.56,13,4.56c5.41,0,12.1-6.31,12.1-6.31s-30.26-21.35-33-23.26-12.44-9.59-30.55-14.37c-15.13-4-36.65-3.87-38.1-3.87H51.14l1.62,2.77,22.37,0c3.32,0,24.38,1,39.38,11v0Zm4.64-43.64c18.37,9.84,36.53,23.48,39.93,26s31,22.2,31,22.2,6.43,4.35,12.36,4.35c5.75,0,12.27-6.39,12.27-6.39s-44.06-31.71-48-34.48-19.81-15.81-45.3-21.86c-19.94-5.07-53.22-4.47-55.52-4.47H25.61l1.62,2.77h35.2c7.29.08,35.37.42,56.76,11.93Z"/><path class="cls-2" d="M278.83,58.68c-5.41-.93-12.57-1.4-12.57-1.4l-9.76,2.77-5.58-4.65s11.63.9,14.83,1.41c2.77,0,1.87-1.41.42-4.22a5.44,5.44,0,0,0-4.6-2.77H232.29A53.64,53.64,0,0,1,221,48.46a13.16,13.16,0,0,1-8.43-5.93c-2.35,5.37,6.94,11.64,6.94,11.64l29,20.79a6.92,6.92,0,0,0,6.95.47s7.45-3.75,11.63-4.64c3.75-.9,15.3-1.41,16.71-.9,3.28.47,6.94,3.75,6.94,3.75,2-13.08-6.43-13.93-11.93-15ZM125,15.6c20.2,8.86,49.09,30.47,53.27,33.54S224.07,82,224.07,82s6.52,4.65,12.57,4.65,12-6.1,12-6.1-58.81-42.18-63-45.25-23.74-19.48-60-29C100.83-.3,58.17,0,53.23,0H0L1.66,2.81h48.8C62.73,2.81,98.23,3.84,125,15.6Z"/><path class="cls-2" d="M121.84,37.29C100,26.38,73.13,25,57.49,25h-43l-1.62-2.77H59.62c5.07,0,40.48-.39,64,4.94,27.06,6.14,50.33,23.91,52.76,25.57S232,92.69,232,92.69,225.94,99,219.38,99c-6,0-12.53-4.64-12.53-4.64S172.12,69.38,168.76,67s-26.6-19.56-46.92-29.7Z"/><path d="M393,115.93a32.65,32.65,0,0,0-6.34-.64c-7.72,0-13.46,3.41-15.08,8.59a17.62,17.62,0,0,0-.45,4.24c0,6.56,4.58,10.24,10.21,10.24a13.72,13.72,0,0,0,4.35-.83c4-1.5,7.31-4.2,7.31-8.32Zm5.33,29.26c-.52,0-2.77.11-3.71-.94a4,4,0,0,1-.9-3.11v-3.31c-3.38,5-9.12,8.41-17.67,8.18-13.47-.37-16.47-10.95-16.47-16.8A16.56,16.56,0,0,1,362.84,119c4.77-6.71,14.67-8.89,23.52-8.89a38.16,38.16,0,0,1,6.64.56v-5.89c0-2.1,0-5.66-2.1-8.17-1.8-2.1-5.14-3.68-11-3.68a25.12,25.12,0,0,0-15.23,5.18l1.09-7S372,86.89,382,86.89c8.37,0,14.15,2.29,17.52,5.7,3.91,4,4.88,7.81,4.88,15.31v37.29Zm37.18-50.46c-9.68,1.84-10.73,9.49-10.73,14.86v35.6H413.41V94.28c0-4.91-3.22-5.93-3.22-5.93H421.4c2.48,0,3.34,1.39,3.34,2.93v3.11c.34-1,4.43-6.45,11.93-6.71,2.44-.11,5.25.11,6.79,1l1.5,7.16a13.74,13.74,0,0,0-9.45-1.16ZM490,145.19c-.38,0-2.74.11-3.79-.94-.83-.83-.83-2.4-.83-3.11v-3.31c-3.07,5-8.59,8.18-16.17,8.18-5.92,0-10-1.35-13.46-5.17-3.72-4.13-4.66-9.27-4.66-16.21V93.42a5.29,5.29,0,0,0-3.37-5.07h10.58c2.62,0,4.2,1.32,4.2,3.3V125.9c0,10.13,3,13,10.09,13,5.85,0,12.19-3.94,12.19-10V88.43h11.26v56.79Zm155.46,0c-2.37,0-3.79-1-3.79-3.87v-67a6.56,6.56,0,0,0-3.27-5.86h11c3.27,0,4.73,1.58,4.73,3.94v72.85h-8.7Zm154.7-52.07c-11.44-.12-13.46,11.66-13.46,24.27,0,15.64,3.94,23.15,13.46,23.15,8.41,0,12.35-9.68,12.35-23.15,0-11-1-24.16-12.35-24.27M800,146.05c-18.57-.11-25.25-11.63-25.25-28.92,0-15.8,6.68-30,25.25-29.94,18.79.11,24.53,14.33,24.53,29.94C824.53,133.07,815.49,146.16,800,146.05Zm169.75-5c-4,3.41-9.34,5.1-15.3,5.18h-.61c-8.89,0-13.76-2.4-15.9-3.6l-1.61-6.76s7.76,5.11,15.86,5.11c7.81,0,12.27-4.21,11.75-11.15-.79-11.06-26.41-8.4-26.41-26.74,0-10.06,8.17-15.35,18.27-15.5h.63c10.39,0,14.22,3.64,14.22,3.64l1.58,6.3s-4.47-4.39-13.36-4.39c-9.56,0-10.5,7.7-10.31,9.8.6,5.51,4.8,6.82,12.34,10.12,7.84,3.34,14,7.7,14,16a15.25,15.25,0,0,1-5.1,12Zm15.38,4.13c-2.1,0-3.22-1.09-3.22-3V93.49a5.71,5.71,0,0,0-3.57-5.1h11.59c2.33,0,3.23,1.24,3.23,3.38v53.42ZM673.46,88.39c2.18,0,3.26,1,3.26,2.93v4.46c3.12-5,8.63-8.21,16.17-8.21,5.93,0,10,1.35,13.47,5.17C710.07,96.91,711,102,711,109v36.27h-6.79a4.34,4.34,0,0,1-4.57-4.69V107.75c0-10.13-3-13-10.06-13-5.85,0-12.23,3.94-12.23,10v40.51H666.11V93.38A4.82,4.82,0,0,0,663,88.47H673.5Zm360.48,27.54a32.94,32.94,0,0,0-6.38-.64c-7.73,0-13.47,3.41-15.08,8.59a17.15,17.15,0,0,0-.42,4.24c0,6.56,4.54,10.24,10.21,10.24a13.52,13.52,0,0,0,4.35-.83c4-1.5,7.32-4.2,7.32-8.32Zm5.32,29.26c-.56,0-2.74.11-3.75-.94a4.27,4.27,0,0,1-.82-3.11v-3.31c-3.42,5-9.16,8.41-17.75,8.18-13.47-.37-16.43-10.95-16.43-16.8a16.15,16.15,0,0,1,3.3-10.21c4.73-6.71,14.63-8.89,23.45-8.89a39.1,39.1,0,0,1,6.71.56v-5.89c0-2.1.34-5.4-2-8.21-1.73-2.18-5.33-3.72-11.44-3.64-10.51.19-14.86,5.18-14.86,5.18l1.12-7s6.19-4.24,16.21-4.24c8.37,0,14.11,2.29,17.48,5.7,3.94,4,4.88,7.81,4.88,15.31v37.29ZM539.91,107.52c0-3.22-.41-8-3-10.65-1.8-1.91-4.65-3.23-8.7-3.23-11,0-12.31,14.67-12.31,22.59v.82c.11,11.18,3.3,22.28,12.53,22.28,5,0,8.48-2,11.48-5.7Zm3.53,37.67c-2.22,0-3-.75-3-2.82v-2.81c-4.28,3.79-8.41,6.34-14.64,6.41h-.22c-16.24,0-21.87-13.69-21.87-28.92,0-11.4,4.39-29.93,22.43-29.93C537,87.12,540,93.64,540,93.64V74.29a7.7,7.7,0,0,0-3.34-6.16h8.81c3.38,0,5.89,2.37,5.89,4.92v72.14ZM593,115.93a32.39,32.39,0,0,0-6.34-.64c-7.73,0-13.47,3.41-15.09,8.59a17.62,17.62,0,0,0-.45,4.24c0,6.56,4.54,10.24,10.21,10.24a13.52,13.52,0,0,0,4.35-.83c4-1.5,7.32-4.2,7.32-8.32Zm5.28,29.26c-.52,0-2.77.11-3.71-.94a4.12,4.12,0,0,1-.86-3.11v-3.31c-3.38,5-9.12,8.41-17.71,8.18-13.47-.37-16.47-10.95-16.47-16.8a16.4,16.4,0,0,1,3.3-10.21c4.77-6.71,14.63-8.89,23.49-8.89a38.51,38.51,0,0,1,6.68.56v-5.89c0-2.1,0-5.66-2.11-8.17-1.76-2.1-5.14-3.68-11-3.68a25.31,25.31,0,0,0-15.27,5.18l1.13-7s6.23-4.24,16.21-4.24c8.4,0,14.14,2.29,17.52,5.7,3.9,4,4.87,7.81,4.87,15.31v37.29Zm157.19-37.67c0-3.22-.41-8-3-10.65-1.77-1.91-4.66-3.23-8.71-3.23-11,0-12.34,14.67-12.34,22.59v.82c.11,11.18,3.3,22.28,12.57,22.28,5,0,8.44-2,11.44-5.7ZM759,145.19c-2.21,0-3-.75-3-2.82v-2.81c-4.23,3.79-8.4,6.34-14.63,6.41H741c-16.13,0-21.75-13.69-21.75-28.92,0-11.4,4.35-29.93,22.39-29.93,10.81,0,13.77,6.52,13.77,6.52V74.29a7.7,7.7,0,0,0-3.34-6.16h8.85c3.38,0,5.89,2.37,5.89,4.92v72.14Zm80.88-56.8c2.18,0,3.31,1,3.31,2.93v4.46c3.07-5,8.59-8.21,16.16-8.21,5.93,0,9.95,1.35,13.47,5.17,3.72,4.17,4.69,9.27,4.69,16.25v36.27h-6.79c-2.89,0-4.54-1.95-4.54-4.69V107.75c0-10.13-3-13-10.09-13-5.85,0-12.19,3.94-12.19,10v40.51H832.6V93.38a4.82,4.82,0,0,0-3.12-4.91H840ZM341.42,145.6a78.7,78.7,0,0,1-11.78.83c-11.66,0-19.09-3.53-24.76-9.05-8.21-8.17-10.35-21.79-10.35-30.31,0-6.86,1.16-20.37,12.19-30.76,5.1-4.76,13-8.85,24.95-8.85,10.61,0,15.72,3,15.72,3l1.95,7c-.42-.19-5.89-3.34-15-3.34-18.75,0-26.59,12.87-26.59,32.9,0,30.31,14.74,32.68,23.11,32.68,5.92,0,8.32-.94,8.32-.94V108.72h-6.52a20.62,20.62,0,0,0-6.27.68l.94-6.12h24.08v40.11a67.23,67.23,0,0,1-10,2.17h0Zm555.85-28.77a35,35,0,0,0,6.38.6c12.6,0,15.49-6.19,16.05-13.36.49-6.38-1.23-12.75-11.1-11.52-9,1.13-11.37,7-11.37,14.26,0,6,.08,10,0,10m17-29.9c13.47,1,16.47,11,16.47,16.8a16.24,16.24,0,0,1-3.3,10.21c-4.76,6.75-14.63,8.89-23.44,8.89a40.47,40.47,0,0,1-6.68-.53v5.26c0,9.94,5.29,12.6,14,12.49,9.79-.11,17.52-6.15,17.52-6.15l-1.09,7s-8.85,5.18-18.87,5.18c-8.4,0-14.71-2.21-18.08-5.7-4.17-4.32-4.88-10.13-4.88-17.63V110.3c0-10.58,4.35-25.06,28.32-23.37Z"/></g></g></svg>