<svg xmlns="http://www.w3.org/2000/svg" viewBox="0 0 192.45 81.11"><defs><style>.cls-1{fill:#2d2a70;}.cls-2{fill:#ed6b23;}</style></defs><g id="Layer_2" data-name="Layer 2"><g id="Layer_1-2" data-name="Layer 1"><g id="Layer_2-2" data-name="Layer 2"><g id="Layer_1-2-2" data-name="Layer 1-2"><path class="cls-1" d="M65,81.1H83.68l-4.27-7ZM75.92,68.35,56.54,36.5,94.12,0H64.43A8.94,8.94,0,0,0,58.2,2.53L31.88,28.26,34.84,0H8L0,76.26a4.39,4.39,0,0,0,3.9,4.82,3.59,3.59,0,0,0,.47,0H26.32L28.14,64l8.09-7.83L50.45,78.62a5.29,5.29,0,0,0,4.48,2.47H65l5.1-10.16Z"/><path class="cls-2" d="M92.08,81.1,128.38,59,133,77.77a4.38,4.38,0,0,0,4.25,3.34h23.51L150.27,45.7l40-24.31.17-1.63L65.07,81.09ZM146.51,33,136.72,0h-23.1a12.74,12.74,0,0,0-11.39,7l-33,65.68,121.43-55.4.19-1.86Zm-39,15.45,8.09-17.13,2.14-4.74a1.46,1.46,0,0,1,2.73.25l3.7,15Z"/><path class="cls-1" d="M176,0a12.75,12.75,0,0,0-12.67,11.42L161.69,27l29.17-11.56L192.45,0ZM156,81.1h28.08l6.15-59.71L160.37,39.57Z"/></g></g></g></g></svg>