<svg xmlns="http://www.w3.org/2000/svg" viewBox="0 0 498.73 145.27"><defs><style>.cls-1{fill:#0d2b5b;}.cls-2{fill:#fdd213;}</style></defs><g id="Layer_2" data-name="Layer 2"><g id="Layer_1-2" data-name="Layer 1"><path class="cls-1" d="M.52,99.83C.52,92.61.39,86.57,0,81.17H13.65l.64,9.27h.38A21.69,21.69,0,0,1,34,79.75,18.09,18.09,0,0,1,51.36,91.33h.26a23.64,23.64,0,0,1,7.72-7.84A21,21,0,0,1,72,79.75c10.43,0,21,7.07,21,27.17v36.93H77.49V109.22c0-10.42-3.61-16.61-11.2-16.61-5.41,0-9.4,3.88-11.07,8.38a22.9,22.9,0,0,0-.77,5.27v37.6H39V107.54c0-8.73-3.47-14.92-10.81-14.92-5.91,0-9.9,4.64-11.33,9a13.67,13.67,0,0,0-.9,5.14v37.09H.52v-44Zm152.6,29a102.65,102.65,0,0,0,.89,15.06H139.72l-1-7h-.39c-3.86,4.89-10.43,8.36-18.53,8.36-12.62,0-19.69-9.13-19.69-18.66,0-15.85,14-23.82,37.2-23.69v-1c0-4.13-1.68-11-12.75-11a33.24,33.24,0,0,0-16.87,4.64l-3.08-10.3c4.63-2.84,12.74-5.54,22.65-5.54,20.08,0,25.88,12.76,25.88,26.39V128.8Zm-15.45-15.57c-11.21-.27-21.89,2.18-21.89,11.71,0,6.18,4,9,9,9a12.85,12.85,0,0,0,12.36-8.63,11.62,11.62,0,0,0,.51-3.47v-8.62Zm26.38-13.4c0-7.22-.13-13.26-.5-18.66h13.89l.76,9.41h.39c2.7-4.9,9.53-10.83,20-10.83,10.94,0,22.26,7.07,22.26,26.91v37.19H205V108.46c0-9-3.35-15.85-12-15.85-6.3,0-10.69,4.51-12.36,9.28A16.18,16.18,0,0,0,180,107v36.82h-16v-44ZM289.46,56v70.24c0,6.44.26,13.4.52,17.64H275.83l-.65-9.91h-.26c-3.73,7-11.34,11.32-20.47,11.32-14.93,0-26.77-12.74-26.77-32-.13-21,13-33.48,28.06-33.48,8.62,0,14.8,3.61,17.63,8.26h.27V56h15.82ZM273.64,107.3a22.18,22.18,0,0,0-.39-4.12C271.83,97,266.82,92,259.61,92c-10.17,0-15.84,9-15.84,20.73,0,11.44,5.66,19.82,15.71,19.82a14,14,0,0,0,13.64-11.21,17.43,17.43,0,0,0,.52-4.63V107.3Zm27,36.56V81.17h16v62.69Zm27.16-42.48c0-8.49-.12-14.55-.5-20.21h13.77l.5,12h.53c3.08-8.87,10.41-12,17.13-12a17.75,17.75,0,0,1,3.72,0V95.08a21.82,21.82,0,0,0-4.63-.51c-7.61,0-12.76,4.89-14.17,12a28.89,28.89,0,0,0-.51,4.9v32.43H327.82V101.38Zm42.49,42.48V81.17h15.95v62.69Z"/><path class="cls-2" d="M485.62,14.87c-7.9-9-16.3-4.94-23-1.62-2.81,1.39-23.08,12.88-23.08,12.88-11.11,4.58-19.76-.42-23.15-4.63a10.93,10.93,0,0,1-.88-1.26l-.79-1.37a61.67,61.67,0,0,0-4.44-6.66,39.61,39.61,0,0,0-3.2-3.65c-7.6-7.67-19.75-13-40.05-3.29-9.61,5.57-40.92,23.46-40.92,23.46-11.77,4.84-20.76-1.05-23.69-5.38a3.58,3.58,0,0,1-.34-.52l-.39-.66-2-3.24q-1.34-2.13-2.88-4.13a39.61,39.61,0,0,0-3.2-3.65C286.1,3.52,274-1.83,253.9,7.74c-12.17,6.94-40.47,23.12-40.47,23.12h0L192.7,42.71l10.72,13.16c4.51,4.3,13,11.35,26.1,5.4,0,0,36.2-21,36.34-21,30.94-17,46.21-.76,53,10.06.24.34.43.7.64,1v0a3.59,3.59,0,0,1,.21.38l.76,1.25c3.29,5,8.48,8.2,14.67,8,3.41-.06,5.72-1.18,9.09-3l35-20.31.07,0c31.34-17.19,46.86.1,53.49,10.92a28.76,28.76,0,0,0,1.71,2.66c3.28,4.45,7.81,7.37,13.56,7.22,3.8-.07,8.06-2.35,8.7-2.77l42-24.23a174.66,174.66,0,0,0-13.11-16.57Z"/></g></g></svg>