<svg xmlns="http://www.w3.org/2000/svg" viewBox="0 0 790.75 147.62"><defs><style>.cls-1{fill:#006cb8;}.cls-2{fill:#acc42a;}.cls-3{fill:#ed1b2f;}</style></defs><g id="Layer_2" data-name="Layer 2"><g id="Layer_1-2" data-name="Layer 1"><path d="M233.64,71.33h27.27c8.29,0,14.22,2.37,19,5.93s8.3,8.3,8.3,14.22c0,4.75,0,11.86-2.37,15.41s-5.93,5.93-10.67,8.3l-13,2.37H250.24v23.71h-16.6Zm16.6,15.41v17.78h9.48l8.3-2.37c2.37-2.37,2.37-4.74,2.37-7.11a6.53,6.53,0,0,0-3.56-5.93c-2.37-2.37-4.74-2.37-8.29-2.37Zm47.41-15.41h43.86V85.56H313.06V97.41h27.26v15.41H313.06v13h28.45v15.41H297.65Zm59.27,0h28.45c7.11,0,11.85,2.37,16.59,5.93a21.85,21.85,0,0,1,5.93,14.22c1.18,4.75,0,8.3-1.19,11.86-2.37,3.55-8.3,8.3-14.22,9.48L415,141.27H394.85L374.7,112.82h-2.37v28.45H356.92Zm15.41,14.23v17.78h5.92c8.3,0,13-4.74,13-10.67,0-7.11-7.11-7.11-11.85-7.11ZM415,71.33h53.34V86.74H450.56v54.53H432.78V86.74H415Zm73.49,0h16.59l23.71,69.94H511l-3.55-13H486.12l-4.74,13h-16.6Zm8.3,22.53-8.3,21.33h14.22Zm48.6-22.53H562l11.85,39.12,14.23-39.12h16.59l8.3,69.94H597.54l-4.74-39.12-15.41,39.12h-5.93L556.05,101l-5.92,40.3H534.72Zm78.23,0h16.59v69.94H623.62Zm78.23,1.19h15.41v68.75h-16.6L671,99.78v41.49H655.62V72.52H671l30.82,42.67Zm48.6-1.19h17.78l22.52,69.94H774.16l-4.75-13H748.08l-4.74,13h-16.6Zm8.3,22.53-7.12,21.33h14.23Z"/><path class="cls-1" d="M0,147.62,46.62,74.24C52.66,63,58.7,62.15,76.83,62.15h39.71c-2.59,2.59-6.91,6.05-9.5,11.23L66.47,138.12c-4.32,6.91-12.08,9.5-22.44,9.5Z"/><path class="cls-2" d="M158,62.15c-18.13,0-24.17.87-31.08,12.09l-25,38.85h46.62c7.77,0,15.54-3.46,19-9.5l26.76-41.44Z"/><path class="cls-3" d="M139,0c18.13,0,23.31.86,30.22,11.22l25,38.85H148.48c-7.77,0-15.54-3.45-19-8.63L101.86,0Z"/></g></g></svg>