<svg xmlns="http://www.w3.org/2000/svg" viewBox="0 0 981.28 134.04"><defs><style>.cls-1{fill:#e28a2d;fill-rule:evenodd;}.cls-2{font-size:98.94px;font-family:FranklinGothic-Heavy, Franklin Gothic Heavy;font-weight:800;}</style></defs><g id="Layer_2" data-name="Layer 2"><g id="Layer_1-2" data-name="Layer 1"><path class="cls-1" d="M149.77,49.94H18l4.37-3.44H145.91l3.86,3.44Zm5.17,43.33h-3.68l4.38-1.6h0L160,90.14h0l.91-.32h23.57a56.42,56.42,0,0,0,5.2-11.8l3.86-.9A61.17,61.17,0,0,1,134.69,122h0a60.48,60.48,0,0,1-32-9.11l3.88-1.7a57.14,57.14,0,0,0,22.71,7.11,57,57,0,0,1-9.91-10.07c-.48-.63-1-1.27-1.43-1.93l3.26-1.36c.29.4.59.8.89,1.19A52.86,52.86,0,0,0,133,116.72V100.11l3.44-1.36v18a52.86,52.86,0,0,0,10.88-10.64,64.72,64.72,0,0,0,7.65-12.81Zm27.32,0H158.69A68.88,68.88,0,0,1,150,108.18a57,57,0,0,1-9.91,10.07,57.69,57.69,0,0,0,42.16-25ZM141.82,42.84H27l4.37-3.45H138l3.85,3.45Zm72,17.66a2.41,2.41,0,1,1-2.41,2.41,2.42,2.42,0,0,1,2.41-2.41ZM134.69,0h0a60.8,60.8,0,0,1,43.08,17.89,61.52,61.52,0,0,1,8.61,10.8h-4.12a57.72,57.72,0,0,0-42.16-25A57.69,57.69,0,0,1,150,13.77a69,69,0,0,1,8.68,14.92h-3.75a64.8,64.8,0,0,0-7.65-12.82A52.86,52.86,0,0,0,136.41,5.23V28.69H133V5.23a52.86,52.86,0,0,0-10.88,10.64,64.8,64.8,0,0,0-7.65,12.82h-3.76a69.39,69.39,0,0,1,8.69-14.92A57.69,57.69,0,0,1,129.28,3.7a57.72,57.72,0,0,0-42.16,25H83a61.52,61.52,0,0,1,8.61-10.8A60.8,60.8,0,0,1,134.69,0ZM99.78,93.27q2.43-1.74,4.9-3.45H85a56.91,56.91,0,0,1-7.41-22.23H74.07a60.78,60.78,0,0,0,15,33.73c.9-.71,1.81-1.41,2.73-2.11a59.22,59.22,0,0,1-4.64-5.94Zm8.63-6c1-.66,2-1.32,3-2a78.9,78.9,0,0,1-3.46-17.73h-3.45a82.24,82.24,0,0,0,3.93,19.7ZM133,72.46V67.59h3.44v3c-1.15.61-2.3,1.22-3.44,1.84Zm32.83-8.19-4-3.57H4.37L0,64.15H157.38q-3.63,1.59-7.17,3.27-7.28,3.43-14.46,7.32C110.14,88.54,85.3,106,64.61,126.53c29.5-13.75,59.32-27.26,90.05-38.06,26.6-9.36,52.55-15.87,75-15.81h2.87l-1.29-2.53a16.75,16.75,0,0,0-4.14-5.3A34.2,34.2,0,0,0,221.21,61a11.34,11.34,0,0,0-4.31-3.88,14.74,14.74,0,0,0-6.83-1.47H195.26a33.74,33.74,0,0,0,4.68-9.34,11.44,11.44,0,0,0-.18-8,9.32,9.32,0,0,0-5.19-4.75,20.64,20.64,0,0,0-7.88-1.35H40.58l-4.37,3.44h150.4a17.29,17.29,0,0,1,6.58,1.09,6.5,6.5,0,0,1,3.1,2.42,6.08,6.08,0,0,1,.33.62,8.22,8.22,0,0,1,0,5.67l-.21.68a37.42,37.42,0,0,1-5.86,10.24l-2.07,2.74H210a11.38,11.38,0,0,1,5.29,1.09,8.7,8.7,0,0,1,3.55,3.56,24.22,24.22,0,0,1,5.95,3.75,13.5,13.5,0,0,1,1.75,1.8c-42.7,1-96.65,24.25-144.12,45.64a339.74,339.74,0,0,1,54.91-37.13q6.93-3.74,14.3-7.23c4.7-2.22,9.43-4.32,14.18-6.26ZM157.72,57H9l4.37-3.44H153.86Z"/><text class="cls-2" transform="translate(248.82 103.7)">POS INDONESIA</text></g></g></svg>